<svg width="128" height="96" viewBox="0 0 128 96" fill="none" xmlns="http://www.w3.org/2000/svg">
<g opacity="0.2">
<mask id="mask0_121_5556" style="mask-type:alpha" maskUnits="userSpaceOnUse" x="0" y="0" width="128" height="96">
<path opacity="0.48" fill-rule="evenodd" clip-rule="evenodd" d="M0 53.0082C0 64.0634 3.98543 74.1375 10.5437 81.7511C18.0676 90.4883 28.9779 95.9815 41.1394 96C46.4544 96.0079 51.5365 94.9635 56.2047 93.0569C58.6184 92.0708 61.3199 92.184 63.6576 93.3523C66.3998 94.721 69.4704 95.4884 72.7129 95.4884C74.0523 95.4884 75.3639 95.3565 76.6327 95.1062C80.2544 94.3941 83.5501 92.7089 86.2566 90.3222C87.9576 88.8215 90.1361 88.0673 92.3626 88.0699H92.4004C99.7575 88.0699 106.591 85.7414 112.265 81.7511C117.337 78.1883 121.48 73.2987 124.239 67.5577C126.645 62.5549 128 56.9035 128 50.9221C128 30.4073 112.06 13.7742 92.4004 13.7742C90.3962 13.7742 88.4326 13.9509 86.517 14.2805C81.4447 5.71202 72.3614 0 61.9996 0C57.6248 0 53.4774 1.01805 49.765 2.84299C46.2344 4.57289 43.0954 7.03101 40.5276 10.0267C31.8084 10.1717 23.7461 13.144 17.1475 18.1044C6.76038 25.9081 0 38.6353 0 53.0082Z" fill="url(#paint0_linear_121_5556)"/>
</mask>
<g mask="url(#mask0_121_5556)">
<rect width="128" height="96" fill="#00A76F"/>
</g>
</g>
<path opacity="0.05" d="M78.1349 54.9847C77.5353 55.6974 76.8879 55.6855 76.5021 55.585L76.5164 55.2159C76.5164 55.2159 78.1109 54.4872 78.0703 54.6403C78.0551 54.6977 78.0854 54.8356 78.1349 54.9847Z" fill="#FF5630"/>
<path opacity="0.05" d="M82.5047 55.7914C81.4866 56.3797 80.8895 55.6901 80.7507 55.4948C80.836 55.2708 80.9644 54.9072 80.9381 54.8036C80.8998 54.6497 82.492 55.3784 82.492 55.3784L82.5047 55.7914Z" fill="#FF5630"/>
<path opacity="0.05" d="M81.4141 49.9207C81.4141 49.9207 82.3827 49.3626 82.594 49.6138C82.8053 49.8649 81.4141 49.9207 81.4141 49.9207Z" fill="#FF5630"/>
<path opacity="0.05" d="M81.9991 50.2275C81.9991 50.2275 81.8396 50.3073 82.1912 50.4093C82.5428 50.5114 81.9991 50.2275 81.9991 50.2275Z" fill="#FF5630"/>
<path opacity="0.05" d="M76.1418 48.6929C76.1091 48.7025 76.9478 49.259 77.7052 48.7982C77.702 48.7982 76.3307 48.6355 76.1418 48.6929Z" fill="#FF5630"/>
<path opacity="0.05" d="M77.6638 49.7578C77.6638 49.7578 77.4342 50.2091 76.9638 50.276C76.4934 50.343 77.6638 49.7578 77.6638 49.7578Z" fill="#FF5630"/>
<path opacity="0.05" d="M80.7427 50.7363C80.7427 50.7363 81.8461 52.4903 81.6348 52.9041C81.4235 53.3179 80.7427 50.7363 80.7427 50.7363Z" fill="#FF5630"/>
<path opacity="0.05" d="M78.5656 57.7106C78.5656 57.8087 78.5656 57.9003 78.556 57.9761C78.5273 58.3309 77.6543 58.1969 77.6543 58.1969C76.857 58.3077 76.57 57.9251 76.4752 57.5591C76.4453 57.4403 76.4306 57.3181 76.4313 57.1956C76.4308 57.1225 76.4356 57.0495 76.4457 56.9771V56.9046C76.6175 56.8527 76.8038 56.8908 76.9416 57.0058C77.2963 57.2936 77.7667 57.0728 77.7667 57.0728C77.7667 57.0728 78.1119 57.1015 78.2451 57.2163C78.32 57.2809 78.4436 57.1254 78.5377 56.9771C78.5433 57.0728 78.552 57.2458 78.5576 57.4308C78.564 57.5256 78.5656 57.6213 78.5656 57.7106Z" fill="#FF5630"/>
<path opacity="0.05" d="M77.1656 57.6903C77.1656 57.6903 76.9264 57.9247 76.4751 57.5628C76.4453 57.4439 76.4306 57.3218 76.4313 57.1992C76.6617 57.3746 77.089 57.6903 77.1656 57.6903Z" fill="#FF5630"/>
<path opacity="0.05" d="M78.5654 57.7113C78.526 57.7416 78.4759 57.7544 78.4269 57.7465C78.3778 57.7387 78.3342 57.7109 78.3063 57.6698C78.3993 57.5991 78.4848 57.5189 78.5614 57.4307C78.5638 57.5263 78.5654 57.622 78.5654 57.7113Z" fill="#FF5630"/>
<path opacity="0.05" d="M80.4366 57.8751C80.4366 57.974 80.4366 58.0656 80.4454 58.1406C80.4741 58.4962 81.3471 58.3614 81.3471 58.3614C82.1443 58.473 82.4313 58.0904 82.5262 57.7236C82.5732 57.5333 82.5832 57.3357 82.5557 57.1416V57.0691C82.3836 57.0181 82.1974 57.0561 82.059 57.1703C81.7042 57.4581 81.2346 57.2373 81.2346 57.2373C81.2346 57.2373 80.8894 57.2668 80.7563 57.3816C80.6813 57.4462 80.5578 57.2907 80.4645 57.1424C80.4589 57.2381 80.4493 57.4111 80.4438 57.5961C80.4374 57.6893 80.4358 57.785 80.4366 57.8751Z" fill="#FF5630"/>
<path opacity="0.05" d="M81.8367 57.8526C81.8367 57.8526 82.0758 58.087 82.5263 57.7251C82.5564 57.6065 82.5714 57.4846 82.5709 57.3623C82.3397 57.5369 81.9124 57.8526 81.8367 57.8526Z" fill="#FF5630"/>
<path opacity="0.05" d="M80.4366 57.8754C80.4758 57.9057 80.5258 57.9184 80.5747 57.9106C80.6237 57.9027 80.6672 57.875 80.6949 57.8339C80.6018 57.7632 80.5163 57.6831 80.4398 57.5947C80.4374 57.6896 80.4358 57.7853 80.4366 57.8754Z" fill="#FF5630"/>
<g opacity="0.05">
<path d="M85.2306 28.3383C85.2473 28.3016 85.2633 28.2649 85.2784 28.229C85.2935 28.1932 85.2991 28.1732 85.3079 28.1445C85.2786 28.2076 85.2527 28.2723 85.2306 28.3383Z" fill="#FF5630"/>
</g>
<path fill-rule="evenodd" clip-rule="evenodd" d="M42.0246 74.5232C41.8314 74.2906 41.7428 73.9886 41.7799 73.6885L45.299 44.8939L45.5908 42.5021C45.6584 41.9517 46.1237 41.5369 46.6782 41.5326L56.986 41.4641C57.2825 41.4622 57.5658 41.3411 57.7719 41.1279C57.978 40.9148 58.0896 40.6276 58.0814 40.3312L58.0774 40.2219C58.0673 39.923 58.1789 39.6327 58.3868 39.4177C58.5947 39.2026 58.8809 39.0811 59.18 39.0811H70.0116C70.6196 39.0811 71.1129 39.5733 71.1142 40.1813C71.1142 40.2309 71.111 40.2804 71.1047 40.3296C71.0631 40.6399 71.1555 40.9532 71.3587 41.1914C71.5619 41.4296 71.8568 41.5702 72.1698 41.5781L82.5724 41.8436C82.8925 41.8514 83.1933 41.9981 83.3966 42.2455C83.5999 42.4929 83.6855 42.8164 83.6312 43.1319L78.4307 73.5075L78.3326 74.0815C78.3084 74.2282 78.2541 74.3683 78.1732 74.4929L42.0246 74.5232Z" fill="#004B50"/>
<rect x="73.4172" y="32.9805" width="6.09106" height="20.6737" transform="rotate(34.64 73.4172 32.9805)" fill="white"/>
<rect x="73.7784" y="33.7861" width="4.30018" height="4.30018" transform="rotate(34.804 73.7784 33.7861)" fill="#FFAB00"/>
<rect opacity="0.5" x="71.0122" y="38.041" width="4.306" height="4.306" transform="rotate(34.64 71.0122 38.041)" fill="#FFAB00"/>
<rect opacity="0.3" x="68.0565" y="42.3184" width="4.306" height="4.306" transform="rotate(34.64 68.0565 42.3184)" fill="#FFAB00"/>
<rect x="66.337" y="31.915" width="6.09106" height="20.5956" transform="rotate(16.29 66.337 31.915)" fill="white"/>
<rect x="67.1044" y="32.4854" width="4.306" height="4.306" transform="rotate(16.29 67.1044 32.4854)" fill="#FF5630"/>
<rect opacity="0.5" x="65.6461" y="37.4756" width="4.306" height="4.306" transform="rotate(16.29 65.6461 37.4756)" fill="#FF5630"/>
<rect opacity="0.3" x="64.188" y="42.4648" width="4.306" height="4.306" transform="rotate(16.29 64.188 42.4648)" fill="#FF5630"/>
<rect x="62.1956" y="32.2266" width="6.09106" height="20.5956" transform="rotate(4.6 62.1956 32.2266)" fill="white"/>
<rect x="63.0596" y="32.6309" width="4.306" height="4.306" transform="rotate(4.6 63.0596 32.6309)" fill="#00B8D9"/>
<rect opacity="0.5" x="62.6422" y="37.8115" width="4.306" height="4.306" transform="rotate(4.6 62.6422 37.8115)" fill="#00B8D9"/>
<rect opacity="0.3" x="62.2256" y="42.9932" width="4.306" height="4.306" transform="rotate(4.6 62.2256 42.9932)" fill="#00B8D9"/>
<rect x="59.4641" y="33.0518" width="6.09106" height="20.5956" transform="rotate(-2.61 59.4641 33.0518)" fill="white"/>
<rect x="60.3711" y="33.3428" width="4.306" height="4.306" transform="rotate(-2.61 60.3711 33.3428)" fill="#00A76F"/>
<rect opacity="0.5" x="60.7766" y="38.3711" width="4.31138" height="4.31138" transform="rotate(-2.86241 60.7766 38.3711)" fill="#00A76F"/>
<rect opacity="0.3" x="60.8442" y="43.7295" width="4.306" height="4.306" transform="rotate(-2.61 60.8442 43.7295)" fill="#00A76F"/>
<path d="M62.0478 60.1938L56.636 62.2874L48.7264 65.3449C48.4274 64.7868 47.9874 64.0326 47.4428 63.1325C45.5693 60.028 42.4695 55.199 39.7094 50.9552C36.6001 46.1716 33.9237 42.1351 33.9237 42.1351L35.861 41.577L51.6866 36.9824L62.0478 60.1938Z" fill="#F4F6F8"/>
<path opacity="0.1" d="M62.0477 60.1938L56.6359 62.2874C53.6127 62.9173 50.5276 63.2008 47.4403 63.1325C45.5667 60.028 42.467 55.199 39.7069 50.9552L35.8617 41.5738L51.6865 36.9824L62.0477 60.1938Z" fill="black"/>
<path d="M66.0739 58.891C66.0739 58.891 57.6668 63.8643 45.1147 62.7394L35.1083 38.3433L39.9039 37.5189L56.4821 34.6719L65.8897 58.4167L66.0739 58.891Z" fill="#00A76F"/>
<path opacity="0.1" d="M65.8866 58.4196C63.907 58.5168 61.6165 58.5073 59.3124 58.2322C56.8186 57.9388 54.3104 57.3345 52.1602 56.2263C50.3624 55.3007 48.8253 54.2938 47.4851 53.0859C43.9987 49.9503 41.8413 45.4649 39.9039 37.5218L56.4821 34.6748L65.8866 58.4196Z" fill="#FF5630"/>
<path d="M72.0541 57.0554C72.0541 57.0554 65.857 58.2688 59.5491 57.5218C57.0553 57.2284 54.5471 56.624 52.3969 55.5159C50.5991 54.5902 49.0628 53.5833 47.7218 52.3754C43.407 48.4936 41.1285 42.5444 38.7789 30.5305C38.7789 30.5305 49.0811 33.0172 59.2685 27.5703C59.2653 27.5743 62.6991 49.003 72.0541 57.0554Z" fill="white"/>
<g opacity="0.3">
<path d="M44.1078 34.9415C44.1078 34.9415 52.4854 34.4679 54.8245 32.6621L55.1793 33.8022C55.1793 33.8022 49.644 36.2442 44.1078 36.2737V34.9415Z" fill="#00A76F"/>
<path d="M44.1078 40.5701C44.1078 40.5701 52.2191 40.126 58.3476 37.1658L58.5549 37.6394C58.5549 37.6394 53.6916 40.4784 44.1078 41.2215V40.5701Z" fill="#00A76F"/>
<path d="M44.7609 42.7634C44.7609 42.7634 52.8722 42.3193 59 39.3591L59.2073 39.8327C59.2073 39.8327 54.344 42.6709 44.7609 43.4148V42.7634Z" fill="#00A76F"/>
<path d="M45.413 44.9598C45.413 44.9598 53.5243 44.5158 59.6528 41.5555L59.8593 42.0291C59.8593 42.0291 54.9961 44.8681 45.413 45.6112V44.9598Z" fill="#00A76F"/>
<path d="M46.0659 47.1563C46.0659 47.1563 54.1772 46.7122 60.3049 43.752L60.5122 44.2256C60.5122 44.2256 55.6489 47.0646 46.0659 47.8077V47.1563Z" fill="#00A76F"/>
<path d="M46.7179 49.3535C46.7179 49.3535 54.8293 48.9094 60.9578 45.9492L61.1643 46.4228C61.1643 46.4228 56.301 49.261 46.7179 50.0049V49.3535Z" fill="#00A76F"/>
</g>
<path d="M103.752 76.6257C103.752 76.6257 100.381 76.4224 100.778 78.7846C100.778 78.7846 100.698 79.2016 101.078 79.3914C101.078 79.3914 101.083 79.216 101.423 79.2758C101.544 79.2961 101.667 79.302 101.79 79.2933C101.955 79.2822 102.112 79.2172 102.237 79.1083C102.237 79.1083 103.185 78.7169 103.553 77.1686C103.553 77.1686 103.826 76.8306 103.815 76.7437L103.246 76.9828C103.246 76.9828 103.441 77.3934 103.288 77.7339C103.288 77.7339 103.269 76.998 103.16 77.0163C103.138 77.0163 102.864 77.1582 102.864 77.1582C102.864 77.1582 103.198 77.8758 102.944 78.3924C102.944 78.3924 103.04 77.5114 102.757 77.2101L102.359 77.4437C102.359 77.4437 102.749 78.1819 102.485 78.7846C102.485 78.7846 102.553 77.8606 102.274 77.5003L101.912 77.7833C101.912 77.7833 102.279 78.5112 102.055 79.0111C102.055 79.0111 102.026 77.9348 101.833 77.8534C101.833 77.8534 101.514 78.1333 101.467 78.2521C101.467 78.2521 101.719 78.7799 101.562 79.0589C101.562 79.0589 101.467 78.3414 101.389 78.3414C101.389 78.3414 101.07 78.8197 101.039 79.1386C101.039 79.1386 101.053 78.6539 101.312 78.2927C101.129 78.3276 100.961 78.4149 100.827 78.5439C100.827 78.5439 100.877 78.2074 101.39 78.1787C101.39 78.1787 101.652 77.8184 101.721 77.796C101.721 77.796 101.211 77.7538 100.901 77.8909C100.901 77.8909 101.174 77.572 101.815 77.7179L102.173 77.4261C102.173 77.4261 101.501 77.3336 101.216 77.4357C101.216 77.4357 101.544 77.1551 102.27 77.356L102.659 77.1232C102.659 77.1232 102.087 76.9996 101.746 77.0434C101.746 77.0434 102.105 76.8489 102.774 77.0594L103.052 76.9342C103.052 76.9342 102.633 76.8545 102.51 76.8385C102.388 76.8226 102.38 76.7923 102.38 76.7923C102.646 76.7475 102.919 76.7778 103.169 76.88C103.169 76.88 103.761 76.6631 103.752 76.6257Z" fill="#00A76F"/>
<path d="M105.322 68.8277C105.322 68.8277 103.422 68.7129 103.647 70.0451C103.623 70.1835 103.691 70.3215 103.816 70.3871C103.816 70.3871 103.82 70.2883 104.011 70.3217C104.079 70.333 104.148 70.3362 104.217 70.3313C104.31 70.3253 104.399 70.2889 104.469 70.2277C104.469 70.2277 105.003 70.0068 105.212 69.1338C105.212 69.1338 105.365 68.9433 105.359 68.8946L105.04 69.031C105.04 69.031 105.149 69.263 105.063 69.4551C105.063 69.4551 105.053 69.0397 104.991 69.0493C104.979 69.0493 104.825 69.129 104.825 69.129C104.825 69.129 105.013 69.5277 104.871 69.825C104.871 69.825 104.925 69.3284 104.766 69.1577L104.54 69.2901C104.54 69.2901 104.76 69.7063 104.611 70.0459C104.611 70.0459 104.649 69.5245 104.492 69.322L104.288 69.4814C104.288 69.4814 104.495 69.892 104.368 70.1735C104.368 70.1735 104.351 69.5667 104.243 69.5213C104.165 69.587 104.096 69.6616 104.036 69.7437C104.036 69.7437 104.178 70.0419 104.091 70.199C104.091 70.199 104.036 69.7948 103.993 69.7932C103.993 69.7932 103.814 70.0602 103.796 70.2436C103.804 70.0735 103.857 69.9085 103.949 69.7653C103.846 69.7847 103.751 69.834 103.676 69.9072C103.676 69.9072 103.704 69.7174 103.995 69.7015C103.995 69.7015 104.142 69.4982 104.181 69.4854C104.181 69.4854 103.894 69.4615 103.719 69.5388C103.719 69.5388 103.873 69.3602 104.234 69.4416L104.437 69.2765C104.437 69.2765 104.057 69.2247 103.897 69.2821C103.897 69.2821 104.082 69.1227 104.491 69.2391L104.711 69.1075C104.542 69.0705 104.368 69.0557 104.195 69.0637C104.195 69.0637 104.398 68.9536 104.775 69.0724L104.934 69.0023C104.934 69.0023 104.695 68.9552 104.628 68.9481C104.561 68.9409 104.555 68.9218 104.555 68.9218C104.705 68.8968 104.859 68.9139 104.999 68.9712C104.999 68.9712 105.328 68.8484 105.322 68.8277Z" fill="#00A76F"/>
<path d="M94.1056 69.9837C94.1056 69.9837 91.8111 69.8449 92.0822 71.453C92.0533 71.6202 92.1354 71.7869 92.2855 71.866C92.2855 71.866 92.2855 71.7464 92.5247 71.7863C92.6071 71.8002 92.6909 71.8042 92.7742 71.7982C92.8868 71.7907 92.9938 71.7465 93.0788 71.6723C93.0788 71.6723 93.7238 71.406 93.9749 70.352C93.9749 70.352 94.1606 70.1224 94.1527 70.0626L93.7612 70.2284C93.7612 70.2284 93.8936 70.5075 93.7891 70.7395C93.7891 70.7395 93.7764 70.2388 93.7022 70.25C93.6871 70.25 93.5013 70.3472 93.5013 70.3472C93.5013 70.3472 93.7285 70.8335 93.5571 71.1875C93.5571 71.1875 93.6225 70.588 93.4304 70.3823L93.1577 70.5417C93.1577 70.5417 93.4232 71.0448 93.243 71.4546C93.243 71.4546 93.2892 70.8256 93.1003 70.5776L92.8531 70.7706C92.8531 70.7706 93.1035 71.2657 92.9504 71.6061C92.9504 71.6061 92.9313 70.8734 92.7997 70.8184C92.7997 70.8184 92.5837 71.0089 92.551 71.0871C92.551 71.0871 92.7216 71.4466 92.6156 71.6364C92.6156 71.6364 92.5502 71.1485 92.4968 71.1461C92.4968 71.1461 92.2823 71.4698 92.2576 71.6906C92.2683 71.4858 92.3324 71.2874 92.4434 71.115C92.3192 71.1387 92.2047 71.1983 92.1141 71.2864C92.1141 71.2864 92.1476 71.0576 92.4968 71.0376C92.4968 71.0376 92.6746 70.7921 92.7224 70.7777C92.7224 70.7777 92.3748 70.7482 92.1643 70.8415C92.1643 70.8415 92.3493 70.6263 92.7854 70.7243L93.0293 70.525C93.0293 70.525 92.5725 70.4628 92.378 70.5314C92.378 70.5314 92.6012 70.3408 93.0955 70.4804L93.361 70.3209C93.361 70.3209 92.9711 70.2372 92.7383 70.2675C92.7383 70.2675 92.9839 70.1351 93.4383 70.2787L93.6281 70.1933C93.6281 70.1933 93.3427 70.1375 93.2589 70.1288C93.1752 70.12 93.1712 70.0969 93.1712 70.0969C93.3521 70.0662 93.5379 70.0867 93.7078 70.1559C93.7078 70.1559 94.1128 70.0084 94.1056 69.9837Z" fill="#00A76F"/>
<rect x="74.1685" y="33.3369" width="13.6068" height="24.3499" rx="4.73723" transform="rotate(-71.99 74.1685 33.3369)" fill="white"/>
<g opacity="0.24">
<path d="M83.4637 27.6018C83.4637 28.9826 82.3443 30.102 80.9635 30.102C79.5826 30.102 78.4633 28.9826 78.4633 27.6018C78.4633 26.2209 79.5826 25.1016 80.9635 25.1016C82.3443 25.1016 83.4637 26.2209 83.4637 27.6018Z" fill="#00A76F"/>
<path d="M86.9455 27.1517L87.1572 26.5004L97.5165 29.8683L97.3047 30.5196L86.9455 27.1517Z" fill="#00A76F"/>
<path d="M86.4055 28.8122L86.6173 28.1609L91.8943 29.8765L91.6826 30.5278L86.4055 28.8122Z" fill="#00A76F"/>
<path d="M85.8647 30.4737L86.0764 29.8224L94.6114 32.5973L94.3997 33.2486L85.8647 30.4737Z" fill="#00A76F"/>
<path d="M85.325 32.1346L85.5367 31.4833L95.896 34.8513L95.6842 35.5025L85.325 32.1346Z" fill="#00A76F"/>
</g>
<rect opacity="0.5" x="91.8403" y="37.5771" width="1.32425" height="3.01444" transform="rotate(-71.99 91.8403 37.5771)" fill="#00A76F"/>
<rect x="72.0441" y="56.9658" width="13.4134" height="20.8812" rx="4" transform="rotate(-57.2648 72.0441 56.9658)" fill="white"/>
<path d="M82.9602 60.5787L87.4298 53.5439L88.1209 53.983L83.6513 61.0178L82.9602 60.5787Z" fill="#F4F6F8"/>
<path d="M84.4365 61.5159L88.9061 54.4812L89.5972 54.9203L85.1276 61.955L84.4365 61.5159Z" fill="#F4F6F8"/>
<path d="M74.6469 56.1788L76.682 52.9757L77.4356 53.4546L75.4005 56.6577L74.6469 56.1788Z" fill="#C4CDD5"/>
<path d="M77.0557 56.8277L81.5253 49.793L82.2164 50.2321L77.7468 57.2668L77.0557 56.8277Z" fill="#C4CDD5"/>
<path d="M78.532 57.7648L83.0016 50.7301L83.6927 51.1692L79.2231 58.2039L78.532 57.7648Z" fill="#C4CDD5"/>
<path d="M80.008 58.7035L84.4776 51.6687L85.1687 52.1078L80.6991 59.1426L80.008 58.7035Z" fill="#C4CDD5"/>
<path d="M81.5354 60.0635L86.0361 53.0624L86.7238 53.5046L82.2232 60.5056L81.5354 60.0635Z" fill="#C4CDD5"/>
<path d="M90.6344 57.5199L91.7917 55.6983L93.6133 56.8557L92.456 58.6773L90.6344 57.5199Z" fill="#C4CDD5"/>
<path d="M71.807 45.003L59.6026 45.1345C59.1457 45.1393 58.7778 45.5108 58.7774 45.9677V46.9762C58.7771 47.4285 58.4163 47.7981 57.9642 47.8093L49.1577 48.0206C48.7736 48.0302 48.4327 47.776 48.3325 47.4051L47.9187 45.8847C47.8195 45.518 47.4847 45.2648 47.1047 45.2693L35.3412 45.396C35.0972 45.3984 34.8666 45.5076 34.7101 45.6947C34.5537 45.8819 34.4871 46.1282 34.528 46.3687L39.2605 74.2217C39.3283 74.6215 39.6738 74.9145 40.0793 74.9161L77.2427 75.0756C77.4918 75.0764 77.7281 74.9659 77.8872 74.7743C78.0463 74.5827 78.1114 74.33 78.0647 74.0854L72.6338 45.6798C72.5582 45.2839 72.21 44.9989 71.807 45.003Z" fill="url(#paint1_linear_121_5556)"/>
<g opacity="0.2">
<path d="M103.815 79.5961C103.815 79.8189 102.747 79.9995 101.43 79.9995C100.113 79.9995 99.0445 79.8189 99.0445 79.5961C99.0445 79.3733 100.113 79.1927 101.43 79.1927C102.747 79.1927 103.815 79.3733 103.815 79.5961Z" fill="#00A76F"/>
<path d="M105.359 70.5018C105.359 70.6273 104.757 70.729 104.014 70.729C103.271 70.729 102.669 70.6273 102.669 70.5018C102.669 70.3763 103.271 70.2745 104.014 70.2745C104.757 70.2745 105.359 70.3763 105.359 70.5018Z" fill="#00A76F"/>
<path d="M94.1496 72.0054C94.1496 72.1569 93.4225 72.2797 92.5256 72.2797C91.6286 72.2797 90.9016 72.1569 90.9016 72.0054C90.9016 71.854 91.6286 71.7312 92.5256 71.7312C93.4225 71.7312 94.1496 71.854 94.1496 72.0054Z" fill="#00A76F"/>
<path d="M33.1839 68.9766C33.1839 69.0748 32.6053 69.1544 31.8916 69.1544C31.1778 69.1544 30.5992 69.0748 30.5992 68.9766C30.5992 68.8784 31.1778 68.7988 31.8916 68.7988C32.6053 68.7988 33.1839 68.8784 33.1839 68.9766Z" fill="#00A76F"/>
<path d="M28.2337 69.4781C28.2337 69.5763 27.6551 69.6559 26.9413 69.6559C26.2276 69.6559 25.6489 69.5763 25.6489 69.4781C25.6489 69.3799 26.2276 69.3003 26.9413 69.3003C27.6551 69.3003 28.2337 69.3799 28.2337 69.4781Z" fill="#00A76F"/>
<path d="M29.841 70.9076C29.841 70.9772 29.4298 71.0336 28.9226 71.0336C28.4154 71.0336 28.0042 70.9772 28.0042 70.9076C28.0042 70.838 28.4154 70.7816 28.9226 70.7816C29.4298 70.7816 29.841 70.838 29.841 70.9076Z" fill="#00A76F"/>
<path d="M24.7033 70.7816C24.7033 70.8512 24.2921 70.9076 23.7848 70.9076C23.2776 70.9076 22.8664 70.8512 22.8664 70.7816C22.8664 70.7121 23.2776 70.6557 23.7848 70.6557C24.2921 70.6557 24.7033 70.7121 24.7033 70.7816Z" fill="#00A76F"/>
</g>
<path d="M23.2787 70.4953C23.2209 70.4481 23.1789 70.3844 23.1583 70.3127C23.1379 70.2385 23.1735 70.1604 23.2428 70.127C23.3225 70.0975 23.4022 70.1509 23.466 70.2067C23.5298 70.2625 23.6024 70.3215 23.6821 70.308C23.596 70.23 23.5573 70.1125 23.58 69.9986C23.5833 69.9754 23.593 69.9536 23.6079 69.9356C23.651 69.8894 23.7291 69.9093 23.7809 69.946C23.9404 70.0608 23.9906 70.2832 23.9914 70.4841C23.9994 70.4105 23.9994 70.3362 23.9914 70.2625C23.9871 70.1871 24.0206 70.1145 24.0807 70.0688C24.1195 70.0476 24.1633 70.0371 24.2075 70.0385C24.2816 70.0279 24.3567 70.0493 24.414 70.0975C24.4698 70.1735 24.4665 70.2778 24.406 70.3502C24.3449 70.4187 24.2727 70.4764 24.1923 70.5208C24.1313 70.5575 24.0793 70.6074 24.04 70.6667C24.0352 70.6747 24.0315 70.6833 24.0289 70.6922H23.5649C23.461 70.6398 23.3647 70.5736 23.2787 70.4953Z" fill="#00A76F"/>
<path d="M31.3668 68.7557C31.3089 68.7089 31.2668 68.6455 31.2464 68.5739C31.2259 68.4999 31.2611 68.4218 31.3301 68.3882C31.4098 68.3587 31.4896 68.4121 31.5533 68.4679C31.6171 68.5237 31.6889 68.5843 31.771 68.5723C31.6849 68.4947 31.6459 68.3776 31.6681 68.2638C31.6717 68.2405 31.6816 68.2187 31.6968 68.2008C31.7399 68.1546 31.818 68.1745 31.8698 68.2104C32.0333 68.326 32.0795 68.5484 32.0803 68.7493C32.0883 68.6754 32.0883 68.6008 32.0803 68.5269C32.0731 68.4524 32.1029 68.3791 32.1601 68.3308C32.199 68.3101 32.2427 68.2999 32.2868 68.3013C32.3608 68.2908 32.4357 68.312 32.4933 68.3595C32.5493 68.4358 32.5457 68.5407 32.4845 68.613C32.4239 68.6817 32.3519 68.7394 32.2717 68.7836C32.2107 68.8199 32.1586 68.8695 32.1194 68.9287C32.1147 68.937 32.111 68.9459 32.1082 68.955H31.6546C31.5499 68.9021 31.4531 68.835 31.3668 68.7557Z" fill="#00A76F"/>
<path d="M28.6714 70.4953C28.6137 70.4479 28.5715 70.3843 28.5502 70.3127C28.5299 70.2385 28.5654 70.1604 28.6347 70.127C28.7144 70.0975 28.7942 70.1509 28.8579 70.2067C28.9217 70.2625 28.9927 70.3231 29.0756 70.3119C28.9896 70.2339 28.9507 70.1166 28.9728 70.0026C28.9763 69.9793 28.9862 69.9575 29.0015 69.9396C29.0445 69.8934 29.1226 69.9133 29.1745 69.95C29.3379 70.0648 29.3833 70.2872 29.3849 70.4881C29.3929 70.4145 29.3929 70.3401 29.3849 70.2665C29.3787 70.1913 29.41 70.1179 29.4686 70.0704C29.5074 70.0491 29.5512 70.0386 29.5954 70.0401C29.6695 70.0296 29.7445 70.051 29.8019 70.0991C29.8578 70.1752 29.8542 70.2797 29.7931 70.3518C29.7323 70.4203 29.6604 70.478 29.5803 70.5224C29.5193 70.5591 29.4673 70.6089 29.428 70.6683C29.4232 70.6763 29.4194 70.6849 29.4168 70.6938H28.9544C28.8517 70.6405 28.7565 70.5738 28.6714 70.4953Z" fill="#00A76F"/>
<g opacity="0.08">
<path d="M24.2489 23.2008C24.2489 24.1532 23.4769 24.9253 22.5245 24.9253C21.5721 24.9253 20.8 24.1532 20.8 23.2008C20.8 22.2484 21.5721 21.4764 22.5245 21.4764C23.4769 21.4764 24.2489 22.2484 24.2489 23.2008Z" fill="#00A76F"/>
<path d="M107.171 36.9814C107.171 37.9338 106.399 38.7059 105.447 38.7059C104.494 38.7059 103.722 37.9338 103.722 36.9814C103.722 36.029 104.494 35.257 105.447 35.257C106.399 35.257 107.171 36.029 107.171 36.9814Z" fill="#00A76F"/>
<path d="M76.1721 17.7245C76.1721 18.6769 75.4 19.4489 74.4476 19.4489C73.4952 19.4489 72.7232 18.6769 72.7232 17.7245C72.7232 16.7721 73.4952 16 74.4476 16C75.4 16 76.1721 16.7721 76.1721 17.7245Z" fill="#00A76F"/>
<path d="M28.8635 32.7145C28.8635 34.3107 27.5695 35.6046 25.9734 35.6046C24.3772 35.6046 23.0833 34.3107 23.0833 32.7145C23.0833 31.1184 24.3772 29.8245 25.9734 29.8245C27.5695 29.8245 28.8635 31.1184 28.8635 32.7145Z" fill="#00A76F"/>
</g>
<path fill-rule="evenodd" clip-rule="evenodd" d="M54.9411 55.9766C52.8144 55.9766 51.0903 57.7006 51.0903 59.8273C51.0903 61.954 52.8144 63.6781 54.9411 63.6781C57.0678 63.6781 58.7919 61.954 58.7919 59.8273C58.7919 57.7006 57.0678 55.9766 54.9411 55.9766V55.9766Z" fill="#007867"/>
<path opacity="0.72" fill-rule="evenodd" clip-rule="evenodd" d="M54.9412 56.4238C56.8205 56.4238 58.344 57.9473 58.344 59.8267C58.344 61.706 56.8205 63.2295 54.9412 63.2295C53.0618 63.2295 51.5383 61.706 51.5383 59.8267C51.54 57.948 53.0625 56.4255 54.9412 56.4238Z" fill="#00A76F"/>
<path fill-rule="evenodd" clip-rule="evenodd" d="M53.3488 60.1084L53.1626 59.9267C53.1223 59.8899 53.0995 59.8385 53.0995 59.7847C53.0995 59.7309 53.1223 59.6795 53.1626 59.6427L54.7963 58.0469C54.834 58.0076 54.8867 57.9854 54.9418 57.9854C54.9969 57.9854 55.0496 58.0076 55.0873 58.0469L56.7211 59.6413C56.7605 59.6785 56.7828 59.7297 56.7828 59.7833C56.7828 59.8368 56.7605 59.888 56.7211 59.9252L56.5348 60.107C56.4967 60.1455 56.4442 60.1672 56.3894 60.1672C56.3345 60.1672 56.282 60.1455 56.2439 60.107L55.2779 59.1131V61.4713C55.2783 61.5236 55.2573 61.5738 55.2196 61.6108C55.1819 61.6479 55.1306 61.6687 55.0771 61.6687H54.808C54.6963 61.6687 54.6057 61.5803 54.6057 61.4713V59.116L53.6397 60.1098C53.6014 60.1481 53.5488 60.1696 53.494 60.1694C53.4391 60.1691 53.3867 60.1471 53.3488 60.1084Z" fill="#007867"/>
<path d="M26.9133 69.4394C26.9133 69.4394 28.7254 63.4983 26.6294 61.1185C25.0612 59.3382 23.281 59.551 22.4837 59.7711C22.0665 59.8825 21.7191 60.1713 21.5334 60.5612C21.2543 61.1623 21.3046 62.1381 23.2722 63.2774C26.5657 65.1845 26.7706 67.8003 26.7706 67.8003L26.9133 69.4394Z" fill="#00A76F"/>
<path d="M26.9869 69.4864C26.9869 69.4864 24.8638 65.1685 24.281 65.261C24.0043 65.3064 23.8768 65.5799 23.8186 65.8525C23.747 66.2063 23.7874 66.5736 23.9342 66.9033C24.2356 67.5969 25.0448 68.9084 26.9869 69.4864Z" fill="#00A76F"/>
<path d="M26.9237 69.4864C26.9237 69.4864 29.046 65.1685 29.6288 65.261C29.9062 65.3064 30.0338 65.5799 30.0912 65.8525C30.1628 66.2063 30.1223 66.5736 29.9756 66.9033C29.6742 67.5969 28.8642 68.9084 26.9237 69.4864Z" fill="#00A76F"/>
<path fill-rule="evenodd" clip-rule="evenodd" d="M22.7049 60.5936C22.7159 60.5585 22.7533 60.5389 22.7885 60.5499L22.7685 60.6136C22.7885 60.5499 22.7885 60.5499 22.7885 60.5499L22.7889 60.5501L22.7898 60.5504L22.793 60.5514L22.8051 60.5554C22.8156 60.5589 22.831 60.5642 22.8508 60.5714C22.8906 60.5857 22.9484 60.6076 23.0213 60.6379C23.1671 60.6985 23.3734 60.7929 23.6169 60.9287C24.1039 61.2001 24.7404 61.6371 25.3393 62.2999C26.5393 63.6279 27.5812 65.855 26.98 69.4502C26.9739 69.4865 26.9396 69.5111 26.9033 69.505C26.867 69.4989 26.8424 69.4645 26.8485 69.4282C27.4432 65.872 26.4123 63.6863 25.2404 62.3893C24.6534 61.7396 24.0292 61.3111 23.552 61.0451C23.3134 60.9122 23.1118 60.8199 22.9701 60.761C22.8993 60.7316 22.8435 60.7105 22.8056 60.6968C22.7866 60.69 22.7722 60.685 22.7626 60.6818L22.7518 60.6782L22.7492 60.6774L22.7487 60.6772C22.7135 60.6662 22.6939 60.6287 22.7049 60.5936Z" fill="#007867"/>
<path fill-rule="evenodd" clip-rule="evenodd" d="M25.9443 61.1751C25.9649 61.2056 25.9568 61.247 25.9263 61.2676L25.9261 61.2677L25.9249 61.2685L25.9196 61.2723C25.9148 61.2757 25.9075 61.281 25.8983 61.2881C25.8798 61.3022 25.8533 61.3234 25.822 61.3513C25.7593 61.407 25.6784 61.4887 25.6047 61.5921C25.4574 61.7989 25.3423 62.0876 25.4511 62.4337C25.4622 62.4688 25.4426 62.5062 25.4075 62.5172C25.3724 62.5283 25.335 62.5088 25.3239 62.4736C25.1984 62.0743 25.334 61.7423 25.4961 61.5148C25.577 61.4011 25.6654 61.3121 25.7334 61.2516C25.7674 61.2213 25.7966 61.198 25.8174 61.1821C25.8278 61.1741 25.8361 61.168 25.842 61.1638L25.8489 61.159L25.8508 61.1576L25.8514 61.1572L25.8517 61.1571C25.8517 61.1571 25.8517 61.157 25.8877 61.2104L25.8517 61.1571C25.8822 61.1365 25.9237 61.1445 25.9443 61.1751Z" fill="#007867"/>
<path fill-rule="evenodd" clip-rule="evenodd" d="M23.3517 61.7007L23.3524 61.7001L23.3555 61.697C23.3585 61.6942 23.3631 61.6899 23.3692 61.6844C23.3814 61.6734 23.3998 61.6576 23.4236 61.6393C23.4714 61.6026 23.5404 61.5562 23.6252 61.5174C23.7944 61.4399 24.0227 61.3938 24.2736 61.5096C24.3071 61.5251 24.3467 61.5105 24.3621 61.477C24.3775 61.4436 24.3629 61.404 24.3295 61.3886C24.0328 61.2517 23.7623 61.308 23.5697 61.3962C23.4737 61.4402 23.396 61.4924 23.3424 61.5336C23.3155 61.5542 23.2945 61.5722 23.28 61.5853C23.2728 61.5918 23.2671 61.5971 23.2632 61.6008L23.2586 61.6053L23.2573 61.6066L23.2569 61.607L23.2567 61.6072C23.2567 61.6072 23.2566 61.6073 23.3042 61.654L23.2567 61.6072C23.2309 61.6335 23.2312 61.6758 23.2575 61.7016C23.2837 61.7274 23.3259 61.727 23.3517 61.7007Z" fill="#007867"/>
<path fill-rule="evenodd" clip-rule="evenodd" d="M25.4462 64.0144L25.4465 64.0143L25.4479 64.0136L25.4539 64.0107C25.4593 64.0081 25.4674 64.0043 25.4779 63.9995C25.4989 63.99 25.5294 63.9769 25.5666 63.9627C25.6415 63.9341 25.7421 63.9014 25.8477 63.8838C25.9541 63.8661 26.0601 63.8646 26.1486 63.8929C26.234 63.9203 26.3056 63.976 26.3486 64.0814C26.3626 64.1154 26.4015 64.1318 26.4356 64.1179C26.4696 64.104 26.486 64.065 26.4721 64.031C26.4131 63.8864 26.3094 63.8044 26.1893 63.766C26.0722 63.7285 25.9424 63.7329 25.8258 63.7523C25.7083 63.7719 25.5987 63.8077 25.519 63.8382C25.479 63.8535 25.4461 63.8676 25.4231 63.878C25.4116 63.8832 25.4026 63.8874 25.3963 63.8904L25.389 63.894L25.387 63.895L25.3864 63.8952L25.3862 63.8954C25.3862 63.8954 25.3861 63.8954 25.4162 63.9549L25.3862 63.8954C25.3533 63.9119 25.3401 63.9521 25.3567 63.9849C25.3732 64.0178 25.4133 64.031 25.4462 64.0144Z" fill="#007867"/>
<path fill-rule="evenodd" clip-rule="evenodd" d="M24.2591 66.0271C24.2894 66.0062 24.3309 66.0138 24.3518 66.0441L24.2969 66.082L24.242 66.1198C24.2211 66.0895 24.2287 66.048 24.2591 66.0271ZM24.2969 66.082C24.242 66.1198 24.242 66.1198 24.242 66.1198L24.2672 66.1563C24.2837 66.18 24.3079 66.2148 24.3388 66.2592C24.4006 66.3479 24.4894 66.4748 24.5972 66.6274C24.813 66.9327 25.1052 67.3414 25.4109 67.7546C25.7165 68.1676 26.0362 68.586 26.3068 68.9103C26.4421 69.0723 26.5659 69.2119 26.6701 69.3159C26.7221 69.3679 26.7702 69.4118 26.8129 69.4455C26.8545 69.4782 26.8958 69.5051 26.9341 69.5177C26.9691 69.5292 27.0068 69.5102 27.0183 69.4753C27.0298 69.4403 27.0108 69.4026 26.9758 69.3911C26.9603 69.3859 26.9338 69.371 26.8954 69.3407C26.8583 69.3115 26.8143 69.2715 26.7642 69.2216C26.6642 69.1217 26.5434 68.9856 26.4092 68.8249C26.1411 68.5035 25.8232 68.0877 25.5181 67.6753C25.2131 67.2632 24.9215 66.8553 24.7061 66.5505C24.5984 66.3981 24.5098 66.2715 24.4482 66.183C24.4173 66.1387 24.3932 66.104 24.3768 66.0803L24.3518 66.0441C24.3518 66.0441 24.3518 66.0441 24.2969 66.082Z" fill="#007867"/>
<path fill-rule="evenodd" clip-rule="evenodd" d="M24.0253 66.5866C24.0253 66.5498 24.0551 66.52 24.092 66.52H24.6118C24.6486 66.52 24.6784 66.5498 24.6784 66.5866C24.6784 66.6234 24.6486 66.6533 24.6118 66.6533H24.092C24.0551 66.6533 24.0253 66.6234 24.0253 66.5866Z" fill="#007867"/>
<path fill-rule="evenodd" clip-rule="evenodd" d="M24.648 67.7653C24.6496 67.7285 24.6807 67.7 24.7175 67.7016L25.5331 67.7366C25.5699 67.7382 25.5984 67.7693 25.5968 67.8061C25.5952 67.8429 25.5641 67.8714 25.5273 67.8699L24.7117 67.8348C24.675 67.8332 24.6464 67.8021 24.648 67.7653Z" fill="#007867"/>
<path fill-rule="evenodd" clip-rule="evenodd" d="M25.2248 66.7573C25.2608 66.7649 25.284 66.8002 25.2764 66.8362L25.188 67.2611C25.1804 67.2972 25.1451 67.3203 25.1091 67.3128C25.073 67.3053 25.0499 67.27 25.0574 67.234L25.1459 66.809C25.1534 66.773 25.1887 66.7498 25.2248 66.7573Z" fill="#007867"/>
<path fill-rule="evenodd" clip-rule="evenodd" d="M26.0806 68.0484C26.1174 68.0499 26.1459 68.081 26.1444 68.1177L26.1285 68.5036C26.127 68.5404 26.0959 68.569 26.0591 68.5675C26.0223 68.566 25.9937 68.5349 25.9953 68.4981L26.0112 68.1122C26.0127 68.0755 26.0438 68.0469 26.0806 68.0484Z" fill="#007867"/>
<path fill-rule="evenodd" clip-rule="evenodd" d="M29.559 66.0441C29.5799 66.0138 29.6214 66.0062 29.6517 66.0271C29.682 66.0481 29.6896 66.0896 29.6687 66.1199L29.6138 66.082L29.559 66.0441ZM29.559 66.0441C29.559 66.0441 29.559 66.0441 29.6138 66.082C29.6687 66.1199 29.6687 66.1199 29.6687 66.1199L29.6434 66.1563C29.6269 66.1801 29.6027 66.2149 29.5717 66.2592C29.5098 66.348 29.4209 66.4748 29.3128 66.6275C29.0967 66.9328 28.804 67.3415 28.4979 67.7547C28.192 68.1677 27.8721 68.586 27.6016 68.9103C27.4664 69.0723 27.3428 69.2119 27.2388 69.3159C27.1869 69.3678 27.139 69.4118 27.0965 69.4454C27.0552 69.4781 27.014 69.505 26.976 69.5177C26.9411 69.5293 26.9033 69.5104 26.8917 69.4754C26.8801 69.4405 26.899 69.4028 26.9339 69.3911C26.9492 69.386 26.9755 69.3711 27.0138 69.3408C27.0508 69.3116 27.0946 69.2716 27.1445 69.2216C27.2443 69.1218 27.3651 68.9857 27.4992 68.8249C27.7672 68.5035 28.0853 68.0876 28.3908 67.6753C28.6961 67.2631 28.9882 66.8553 29.204 66.5505C29.3118 66.398 29.4006 66.2714 29.4624 66.1829C29.4933 66.1387 29.5175 66.1039 29.5339 66.0803L29.559 66.0441Z" fill="#007867"/>
<path fill-rule="evenodd" clip-rule="evenodd" d="M29.2321 66.5866C29.2321 66.5498 29.2619 66.52 29.2987 66.52H29.8185C29.8554 66.52 29.8852 66.5498 29.8852 66.5866C29.8852 66.6234 29.8554 66.6533 29.8185 66.6533H29.2987C29.2619 66.6533 29.2321 66.6234 29.2321 66.5866Z" fill="#007867"/>
<path fill-rule="evenodd" clip-rule="evenodd" d="M29.2624 67.7653C29.264 67.8021 29.2355 67.8332 29.1987 67.8348L28.3831 67.8699C28.3463 67.8714 28.3152 67.8429 28.3136 67.8061C28.312 67.7693 28.3406 67.7382 28.3774 67.7366L29.193 67.7016C29.2298 67.7 29.2609 67.7285 29.2624 67.7653Z" fill="#007867"/>
<path fill-rule="evenodd" clip-rule="evenodd" d="M28.6857 66.7573C28.7217 66.7498 28.757 66.773 28.7645 66.809L28.853 67.234C28.8605 67.27 28.8374 67.3053 28.8013 67.3128C28.7653 67.3203 28.73 67.2972 28.7225 67.2611L28.634 66.8362C28.6265 66.8002 28.6496 66.7649 28.6857 66.7573Z" fill="#007867"/>
<path fill-rule="evenodd" clip-rule="evenodd" d="M27.8299 68.0484C27.8667 68.0469 27.8978 68.0755 27.8993 68.1122L27.9153 68.4981C27.9168 68.5349 27.8882 68.566 27.8514 68.5675C27.8146 68.569 27.7836 68.5404 27.782 68.5036L27.7661 68.1177C27.7646 68.081 27.7932 68.0499 27.8299 68.0484Z" fill="#007867"/>
<defs>
<linearGradient id="paint0_linear_121_5556" x1="64" y1="96" x2="113.845" y2="6.72475" gradientUnits="userSpaceOnUse">
<stop/>
<stop offset="1" stop-opacity="0.01"/>
</linearGradient>
<linearGradient id="paint1_linear_121_5556" x1="47.6342" y1="36.5974" x2="34.7176" y2="74.7374" gradientUnits="userSpaceOnUse">
<stop stop-color="#00A66F"/>
<stop offset="1" stop-color="#007867"/>
</linearGradient>
</defs>
</svg>
