<svg width="152" height="151" viewBox="0 0 152 151" fill="none" xmlns="http://www.w3.org/2000/svg">
<path d="M0 75.4998C0 33.8774 34.3776 0.135742 76 0.135742C117.622 0.135742 152 33.8774 152 75.4998C152 117.122 117.622 150.864 76 150.864C34.3776 150.864 0 117.122 0 75.4998Z" fill="#72BA8C"/>
<path d="M71.971 40.7318L52.8824 47.8814C49.2382 49.2696 46.2534 53.5732 46.2534 57.4951V85.6074C46.2534 88.4186 48.0929 92.1322 50.3488 93.7981L69.4374 108.063C72.804 110.596 78.3223 110.596 81.6888 108.063L100.777 93.7981C103.033 92.0975 104.873 88.4186 104.873 85.6074V57.4951C104.873 53.6079 101.888 49.2696 98.2438 47.9161L79.1553 40.7665C77.2117 40.003 73.9493 40.003 71.971 40.7318Z" fill="white"/>
<path d="M70.9296 82.9698C70.2702 82.9698 69.6108 82.7268 69.0902 82.2062L63.5024 76.6185C62.4959 75.612 62.4959 73.946 63.5024 72.9396C64.5089 71.9331 66.1748 71.9331 67.1813 72.9396L70.9296 76.6879L84.014 63.6035C85.0205 62.597 86.6864 62.597 87.6929 63.6035C88.6994 64.61 88.6994 66.2759 87.6929 67.2824L72.7691 82.2062C72.2485 82.7268 71.5891 82.9698 70.9296 82.9698Z" fill="#72BA8C"/>
</svg>
